<svg width="100%" height="100%" viewBox="0 0 179 180" version="1.1" xmlns="http://www.w3.org/2000/svg" xml:space="preserve" fill-rule="evenodd" clip-rule="evenodd" stroke-linejoin="round" stroke-miterlimit="2">
  <path d="M147.977 81.855c-.358-4.3-1.35-8.859-2.983-13.292-1.617-4.433-3.871-8.737-6.546-12.617a59.973 59.973 0 0 0-8.959-10.254c-.125-.12-.254-.229-.383-.342a61.661 61.661 0 0 0-9.304-8.025c-6.063-4.258-12.9-7.429-20.05-9.358a64.33 64.33 0 0 0-21.842-1.992A66.095 66.095 0 0 0 57.32 31c-6.575 2.792-12.725 6.721-17.975 11.596-5.263 4.867-9.613 10.684-12.721 16.971-3.117 6.28-5.025 13.038-5.6 19.704-.296 3.33-.204 7.155.337 11.175.009 2.967.217 5.93.638 8.863a64.289 64.289 0 0 0 6.766 20.87c3.271 6.217 7.563 11.997 12.725 16.942 5.159 4.946 11.188 9.055 17.742 11.959 6.542 2.92 13.6 4.625 20.604 5.008 7.004.392 13.967-.517 20.313-2.617 4.854-1.579 10.4-4.429 15.604-8.383a59.642 59.642 0 0 0 2.72-2.192c2.722-2.004 5.438-4.22 8.038-6.675 6.963-5.933 12.4-13.354 15.7-21.716a61.1 61.1 0 0 0 2.004-5.004c1.65-4.705 2.655-9.505 3.009-14.084.154-1.958.108-4.22-.113-6.591.559-1.38.892-3.046.867-4.971" fill="#ffe874"/>
  <path d="M124.942 173.426a3.55 3.55 0 0 0-.125-.517.98.98 0 0 0-.025-.404c-.1-.333-.263-.671-.47-.988a4.277 4.277 0 0 0-.743-.875 5.357 5.357 0 0 0-.883-.645c-.017-.009-.029-.013-.037-.021-.28-.18-.571-.338-.88-.459a4.947 4.947 0 0 0-.916-.275c-.759-2.733-1.609-5.258-1.184-7.612-1.016-1.842-1.058-4.15-1.558-6.534-.45-2.137-1.387-4.083-1.908-6.283-.692-2.917-1.917-5.9-2.604-8.958-.317-1.396-.067-2.921-.35-4.321-.738-3.658-.934-7.65-1.675-11.625-.267-1.425-.817-2.904-1.067-4.35-.358-2.046-.48-4.133-.82-6.283-.684-4.288-1.672-8.596-2.318-12.45-.25-1.5-.216-2.988-.491-4.455-.188-.958-.613-1.97-.813-2.887-.75-3.48-1.466-7.18-2.016-10.233-.713-3.925-1.075-7.85-1.709-11.8-.637-3.967-1.879-7.88-2.375-11.688-.141-1.12.08-2.383-.17-3.75-.234-1.27-.821-2.404-1.167-3.77-1.538-6.092-1.446-11.517-2.2-17.392-.371-2.846-1.267-6.005-1.604-8.984-.121-1.075-.1-2.004-.23-2.987-.525-3.88-1.383-5.563-2.041-8.146-.592-2.283-1.384-5.867-2.021-9.104-.254-1.317-.442-2.559-.667-3.538.05-.825-.033-1.45-.404-1.733-.304-.238-.57-.325-.817-.304-1.141-.3-1.441.666-1.333 2.096-.558 2.304-.612 5.82-.742 6.97-.108.959-.383 1.992-.441 2.567-.284 2.733-.084 6.746-.809 10.442-.22 1.112-.612 2.137-.858 3.258-.417 1.938-.637 4.05-1.137 6.042-.5 1.975-1.209 3.816-1.588 5.775-.167.862-.162 1.741-.35 2.587-.22 1.046-.704 2.009-.92 3.054-.413 2.03-.797 4.163-1.167 6.225-1.08 5.955-1.675 12.634-2.742 18.234-.7 3.654-2.054 7.879-2.408 11.12-.546 4.896-1.517 10.371-2.463 16.017-.712 4.242-1.004 8.613-1.8 12.734-.292 1.512-.8 3.029-1.079 4.533-.675 3.708-1.033 7.462-1.796 11.033-.342 1.613-.837 3.175-1.104 4.721-.667 3.73-1.167 7.388-1.675 10.867-.596 4.066-.783 7.316-1.225 10.562-.204 1.471-.604 2.8-.83 4.209-.424 2.691-.578 5.408-1.062 7.937-.446 2.296-1.816 5.83-2.25 8.613a5.128 5.128 0 0 0-2.379.916c-.467.338-.87.763-1.18 1.234-.312.466-.528.991-.64 1.516-.06.267-.088.571-.084.896-.03.242-.042.48-.038.721.013.592.134 1.183.338 1.73.2.528.496 1.033.858 1.478.354.446.804.834 1.3 1.13a4.733 4.733 0 0 0 1.596.604c.558.1 1.117.096 1.646-.013.404-.079.875-.254 1.333-.516.08-.046.159-.1.238-.15a6.55 6.55 0 0 0 .708-.455 4.447 4.447 0 0 0 1.467-1.583 4.283 4.283 0 0 0 .583-1.48c.033-.153.054-.332.058-.524a.964.964 0 0 0 .117-.388 4.109 4.109 0 0 0-.104-1.091 4.794 4.794 0 0 0-1.017-1.984c-.008-.008-.02-.016-.029-.029a5.515 5.515 0 0 0-.662-.733c-.242-.213-.5-.4-.78-.567.217-2.825.28-5.496 1.475-7.558-.325-2.083.417-4.267.759-6.675.3-2.167.079-4.317.341-6.559.338-2.979.192-6.204.584-9.308.179-1.425.929-2.775 1.141-4.187.546-3.692 1.721-7.517 2.375-11.505.238-1.429.217-3.008.467-4.45.367-2.05.958-4.054 1.363-6.191.816-4.263 1.358-8.65 2.058-12.496.27-1.496.808-2.883 1.046-4.358.154-.963.087-2.063.216-2.992.48-3.525 1.059-7.25 1.575-10.308.667-3.938 1.663-7.746 2.405-11.684.75-3.946.908-8.046 1.737-11.796.246-1.104.883-2.212 1.113-3.587.212-1.275.045-2.542.179-3.942.629-6.25 2.554-11.32 3.837-17.104.621-2.8.859-6.075 1.55-8.992.246-1.054.584-1.92.792-2.891.825-3.825.592-5.7.846-8.359.166-1.737.466-4.179.816-6.654.059.213.109.396.146.542.217.937.317 2.004.45 2.567.663 2.666 2.217 6.37 2.792 10.095.17 1.113.142 2.217.296 3.35.266 1.967.775 4.025.983 6.075.204 2.025.158 4 .467 5.967.137.867.441 1.696.554 2.55.142 1.058.017 2.13.17 3.188.3 2.05.663 4.187 1.017 6.254 1.005 5.966 2.717 12.45 3.609 18.083.583 3.67.75 8.104 1.512 11.275 1.154 4.788 2.1 10.267 3.13 15.9.766 4.233 1.979 8.442 2.629 12.583.237 1.525.279 3.121.529 4.634.625 3.716 1.554 7.366 2.054 10.987.22 1.634.292 3.267.558 4.817.646 3.737 1.417 7.342 2.121 10.792.817 4.025 1.75 7.141 2.43 10.345.312 1.459.391 2.838.653 4.238.517 2.68 1.296 5.292 1.7 7.833.359 2.309.267 6.1.8 8.863-.25.125-.487.27-.716.433a4.91 4.91 0 0 0-1.2 1.238 4.594 4.594 0 0 0-.696 1.558 4.495 4.495 0 0 0-.083 1.646c.033.27.112.567.225.87.05.234.125.463.208.688a5.15 5.15 0 0 0 .908 1.513c.371.433.809.808 1.3 1.104a5.025 5.025 0 0 0 1.613.62c.562.113 1.146.122 1.704.026a4.344 4.344 0 0 0 1.546-.575c.35-.209.737-.53 1.075-.934.058-.075.116-.15.175-.22.179-.209.354-.434.512-.675.442-.588.73-1.267.842-1.984.03-.141.05-.283.07-.429a4.66 4.66 0 0 0-.02-1.158" fill="#231f20"/>
  <path d="M4.488 107.754c.146.012.317.012.496-.004a.908.908 0 0 0 .37.066c.317-.02.663-.091.992-.208.334-.117.659-.283.95-.483a4.292 4.292 0 0 0 .792-.684c.229-.212.433-.441.612-.695a5.05 5.05 0 0 0 .442-.771c2.625-.092 5.088-.317 7.117.579 1.883-.521 3.975-.063 6.233 0 2.025.054 3.983-.371 6.075-.367 2.78 0 5.738-.458 8.642-.42 1.329.016 2.65.566 3.979.612 3.454.125 7.104.808 10.842 1 1.337.067 2.8-.113 4.154-.03 1.92.122 3.833.459 5.85.613 4.008.309 8.104.354 11.725.596 1.408.096 2.737.454 4.125.513.9.041 1.904-.125 2.77-.109 3.3.075 6.8.225 9.667.388 3.696.204 7.313.725 11.013 1.004 3.716.279 7.512 0 11.054.375 1.042.108 2.133.583 3.42.65 1.2.067 2.347-.221 3.65-.238 5.826-.07 10.7 1.175 16.167 1.763 2.638.28 5.684.154 8.442.492.996.125 1.83.337 2.746.433 3.612.362 5.312-.046 7.792-.088 2.183-.033 5.583.021 8.641.142 1.242.05 2.409.158 3.334.163.737.22 1.312.283 1.654.004.275-.221.408-.442.446-.667.52-.97-.288-1.446-1.6-1.658-1.959-1-5.117-1.8-6.13-2.167-.837-.308-1.716-.775-2.22-.95-2.4-.846-6.067-1.533-9.242-2.983-.954-.438-1.796-1.017-2.75-1.471-1.667-.796-3.52-1.45-5.208-2.333-1.675-.871-3.18-1.913-4.867-2.675-.742-.338-1.533-.525-2.254-.871-.9-.43-1.663-1.071-2.563-1.488-1.741-.808-3.583-1.616-5.366-2.4-5.134-2.254-11.03-4.225-15.855-6.4-3.141-1.416-6.662-3.541-9.508-4.566-4.3-1.55-9.029-3.6-13.917-5.671-3.675-1.559-7.55-2.763-11.091-4.367-1.304-.592-2.563-1.375-3.863-1.946-3.2-1.408-6.504-2.546-9.562-4.004-1.38-.658-2.68-1.437-4.021-2.017-3.22-1.404-6.408-2.637-9.442-3.85-3.537-1.412-6.429-2.283-9.254-3.379-1.287-.5-2.404-1.146-3.62-1.65-2.338-.97-4.76-1.691-6.934-2.679-1.97-.892-4.867-2.887-7.283-3.883a4.693 4.693 0 0 0-.313-2.338c-.208-.5-.5-.95-.858-1.333a4.15 4.15 0 0 0-1.23-.904c-.224-.109-.5-.2-.791-.267a4.735 4.735 0 0 0-2.275-.254 4.76 4.76 0 0 0-1.513.45c-.487.229-.933.546-1.304.925-.375.383-.679.833-.887 1.316a4.097 4.097 0 0 0-.346 1.488c-.02.38.037.842.18 1.312.028.08.053.159.082.246.067.242.155.492.259.734a4.182 4.182 0 0 0 1.112 1.666c.096.096.2.184.296.271.288.242.6.434.913.58.129.058.291.116.462.162a.92.92 0 0 0 .32.187c.318.088.663.138 1.013.138a4.395 4.395 0 0 0 2.004-.488c.009-.008.021-.012.038-.016.275-.125.546-.271.796-.446.25-.167.47-.363.68-.571 2.503.8 4.895 1.43 6.507 2.954 1.946.159 3.755 1.296 5.855 2.121 1.883.742 3.875 1.004 5.841 1.717 2.613.954 5.554 1.516 8.271 2.537 1.242.471 2.3 1.438 3.525 1.93 3.213 1.291 6.413 3.174 9.867 4.62 1.233.521 2.666.846 3.912 1.388 1.771.766 3.454 1.733 5.296 2.562 3.667 1.65 7.504 3.084 10.825 4.542 1.288.567 2.42 1.354 3.708 1.883.83.346 1.838.53 2.646.842 3.08 1.187 6.313 2.52 8.959 3.646 3.404 1.446 6.629 3.162 10.012 4.683 3.408 1.53 7.071 2.55 10.275 4.108.942.459 1.804 1.275 3 1.775 1.1.467 2.275.588 3.508 1.013 5.505 1.917 9.667 4.746 14.605 7.146 2.395 1.166 5.295 2.083 7.775 3.333.9.454 1.608.942 2.437 1.342 3.275 1.566 5.013 1.762 7.359 2.562 1.529.521 3.666 1.321 5.825 2.171-.209.004-.384.008-.521.008-.892 0-1.875-.141-2.413-.137-2.546.02-6.22.62-9.704.337-1.042-.087-2.033-.345-3.092-.454-1.829-.183-3.796-.166-5.683-.425-1.875-.246-3.646-.716-5.483-.858-.817-.067-1.63.025-2.421-.054-.992-.096-1.93-.442-2.913-.53-1.916-.17-3.92-.304-5.862-.433-5.596-.379-11.817-.233-17.088-.641-3.437-.263-7.466-1.071-10.496-1.063-4.566.004-9.716-.32-15.012-.608-3.988-.217-8.042-.03-11.92-.338-1.422-.112-2.872-.425-4.293-.52-3.483-.238-6.979-.184-10.35-.517-1.525-.15-3.008-.442-4.47-.534-3.505-.225-6.921-.304-10.18-.412-3.812-.125-6.829.042-9.862-.033-1.375-.038-2.642-.263-3.958-.325-2.534-.117-5.05.025-7.434-.159-2.158-.175-5.562-1.075-8.17-1.187a4.144 4.144 0 0 0-.238-.742 4.545 4.545 0 0 0-.85-1.346 4.33 4.33 0 0 0-1.258-.962 4.158 4.158 0 0 0-1.471-.438 3.749 3.749 0 0 0-.83.021 4.962 4.962 0 0 0-.662.042c-.55.07-1.083.237-1.567.491-.462.238-.9.559-1.275.938-.37.379-.683.829-.9 1.312a4.452 4.452 0 0 0-.391 1.542c-.034.52.029 1.042.183 1.513.113.366.32.779.613 1.175l.158.204c.15.204.312.408.496.604.437.525.987.933 1.612 1.183.121.059.246.117.367.159.35.125.708.204 1.05.233" fill="#231f20"/>
  <path d="M173.091 71.028c-.154.009-.33.034-.513.075a1.003 1.003 0 0 0-.395-.025 3.92 3.92 0 0 0-1.009.363c-.329.162-.641.38-.92.625-.28.25-.521.52-.717.796a.09.09 0 0 1-.021.033c-.2.254-.388.517-.538.804a4.93 4.93 0 0 0-.358.867c-2.729.454-5.27 1.025-7.504.37-1.896.8-4.138.6-6.504.842-2.113.225-4.1.934-6.288 1.217-2.904.375-5.92 1.263-8.958 1.617-1.388.166-2.838-.23-4.23-.1-3.624.341-7.52.133-11.45.441-1.408.117-2.9.496-4.328.596-2.025.138-4.063.046-6.18.163-4.233.225-8.516.737-12.32.975-1.48.096-2.917-.096-4.371.029-.946.08-1.975.392-2.884.492-3.445.375-7.116.695-10.133.92-3.883.288-7.725.238-11.625.455-3.917.212-7.837 1.025-11.583 1.116-1.104.025-2.309-.32-3.659-.212-1.258.096-2.416.55-3.775.741-6.062.871-11.32.234-17.1.371-2.8.063-5.954.613-8.879.638-1.062.012-1.954-.104-2.925-.08-3.812.117-5.537.776-8.112 1.159-2.275.337-5.83.742-9.034 1.03-1.308.116-2.529.17-3.504.29-.796-.137-1.408-.116-1.725.213-.254.271-.375.525-.375.763-.408 1.079.496 1.462 1.896 1.508 2.18.775 5.588 1.18 6.692 1.43.916.2 1.896.574 2.446.687 2.625.558 6.537.77 10.05 1.85 1.054.316 2.008.812 3.075 1.162 1.837.6 3.862 1.025 5.745 1.717 1.863.683 3.575 1.558 5.442 2.125.817.25 1.675.337 2.47.6.997.325 1.88.892 2.876 1.204 1.93.604 3.958 1.2 5.92 1.771 5.667 1.65 12.088 2.908 17.417 4.517 3.467 1.05 7.438 2.787 10.542 3.462 4.7 1.025 9.913 2.525 15.296 4.021 4.037 1.125 8.254 1.846 12.17 3.042 1.438.433 2.855 1.079 4.288 1.5 3.53 1.037 7.134 1.77 10.53 2.87 1.524.5 2.987 1.134 4.462 1.555 3.554 1.029 7.05 1.883 10.375 2.729 3.887.996 7.017 1.508 10.12 2.266 1.41.342 2.66.863 4 1.225 2.576.692 5.192 1.113 7.6 1.846 2.176.667 5.467 2.35 8.126 3.059.004.27.029.545.075.816.1.55.296 1.092.57 1.58.28.487.65.924 1.08 1.27.42.35.908.617 1.408.78.25.079.546.141.858.17.225.054.463.088.696.109a5.139 5.139 0 0 0 3.234-.834 4.713 4.713 0 0 0 1.979-2.633c.15-.53.204-1.08.154-1.6a4.246 4.246 0 0 0-.367-1.346c-.041-.079-.079-.162-.116-.242a6.82 6.82 0 0 0-.375-.737c-.33-.638-.8-1.18-1.384-1.583a4.398 4.398 0 0 0-.35-.242 4.182 4.182 0 0 0-1.02-.475 3.28 3.28 0 0 0-.509-.113c-.1-.066-.22-.12-.367-.15a4.175 4.175 0 0 0-1.07-.008c-.371.046-.738.142-1.084.28a4.66 4.66 0 0 0-.937.503c-.013.009-.025.021-.034.025a4.728 4.728 0 0 0-1.408 1.267c-2.72-.496-5.308-.829-7.187-2.2-2.055.104-4.096-.842-6.405-1.412-2.07-.513-4.175-.521-6.325-.996-2.854-.634-5.995-.825-8.979-1.521-1.358-.317-2.591-1.18-3.941-1.53-3.525-.908-7.117-2.433-10.921-3.474-1.363-.375-2.896-.513-4.275-.909-1.946-.562-3.834-1.337-5.863-1.945-4.054-1.225-8.258-2.2-11.92-3.271-1.426-.413-2.713-1.08-4.121-1.459-.917-.245-1.992-.295-2.88-.512-3.37-.82-6.929-1.767-9.841-2.58-3.75-1.045-7.354-2.4-11.092-3.52-3.754-1.125-7.72-1.7-11.27-2.883-1.047-.35-2.06-1.084-3.372-1.446-1.216-.338-2.462-.3-3.804-.58-6-1.241-10.725-3.624-16.208-5.462-2.654-.883-5.804-1.442-8.567-2.412-1-.35-1.804-.759-2.725-1.063-3.629-1.187-5.47-1.158-8.02-1.675-1.676-.337-4.009-.875-6.38-1.467.213-.037.4-.062.538-.083.937-.117 1.983-.104 2.537-.183 2.654-.367 6.417-1.496 10.084-1.675 1.1-.059 2.162.083 3.283.046 1.933-.05 3.983-.342 5.987-.334 1.988.013 3.905.254 5.842.154.858-.041 1.692-.25 2.533-.279 1.042-.029 2.067.2 3.109.163a262.66 262.66 0 0 0 6.17-.354c5.896-.363 12.359-1.367 17.913-1.659 3.62-.191 7.942.096 11.096-.325 4.767-.629 10.18-.991 15.75-1.416 4.187-.317 8.387-1.063 12.475-1.275 1.504-.08 3.058.054 4.554-.038 3.671-.229 7.308-.762 10.871-.875 1.604-.05 3.196.046 4.73-.058 3.687-.242 7.266-.625 10.682-.959 3.992-.387 7.109-.966 10.288-1.308 1.446-.15 2.796-.083 4.175-.204 2.658-.22 5.267-.717 7.78-.842 2.274-.12 5.945.354 8.678.117.096.254.217.504.346.737.283.488.646.93 1.083 1.296a4.447 4.447 0 0 0 3.03 1.084c.262-.009.558-.055.866-.13.23-.033.459-.079.692-.133a5.15 5.15 0 0 0 2.758-1.883c.342-.45.6-.959.767-1.496a4.649 4.649 0 0 0 .196-1.654 4.283 4.283 0 0 0-.4-1.559 4.305 4.305 0 0 0-.792-1.137 2.946 2.946 0 0 1-.2-.196 6.928 6.928 0 0 0-.596-.558 4.259 4.259 0 0 0-1.845-1.021 4.186 4.186 0 0 0-.409-.108 4.389 4.389 0 0 0-1.129-.105" fill="#231f20"/>
  <path d="M79.24 171.554c.066-.142.116-.313.166-.492.075-.087.142-.2.196-.341.088-.325.133-.692.13-1.063a4.473 4.473 0 0 0-.558-2.138 4.813 4.813 0 0 0-.48-.841 4.671 4.671 0 0 0-.609-.708c.813-2.642 1.446-5.167 3.034-6.871.133-2.054 1.32-3.971 2.166-6.196.746-1.988 1-4.08 1.734-6.163.962-2.762 1.525-5.854 2.566-8.729.475-1.316 1.48-2.437 1.988-3.741 1.32-3.388 3.258-6.775 4.742-10.43.529-1.308.858-2.812 1.408-4.137.787-1.867 1.783-3.65 2.63-5.592 1.695-3.883 3.157-7.941 4.653-11.45.58-1.366 1.396-2.566 1.938-3.92.354-.884.533-1.942.85-2.796a283.818 283.818 0 0 1 3.729-9.467c1.475-3.608 3.246-7.017 4.804-10.6 1.567-3.596 2.596-7.463 4.196-10.85.47-.996 1.32-1.917 1.83-3.175.478-1.167.59-2.408 1.028-3.713 1.942-5.808 4.871-10.216 7.338-15.445 1.196-2.53 2.129-5.6 3.412-8.221.471-.95.975-1.704 1.384-2.58 1.604-3.462 1.791-5.295 2.604-7.77.72-2.184 1.954-5.542 3.133-8.538.483-1.22.988-2.333 1.308-3.258.48-.654.742-1.209.588-1.638-.13-.354-.3-.57-.517-.679-.779-.85-1.533-.212-2.196 1.021-1.67 1.6-3.558 4.463-4.275 5.338-.6.729-1.362 1.437-1.716 1.879-1.671 2.087-3.621 5.496-6.159 8.154-.762.796-1.629 1.429-2.416 2.22-1.363 1.376-2.65 2.992-4.113 4.367-1.45 1.359-3 2.5-4.341 3.913-.592.62-1.055 1.346-1.646 1.942-.738.741-1.638 1.279-2.363 2.02a314.888 314.888 0 0 0-4.241 4.505c-4.017 4.325-8.021 9.504-11.85 13.541-2.492 2.63-5.825 5.396-7.825 7.867-3.021 3.742-6.7 7.725-10.446 11.867-2.821 3.108-5.359 6.55-8.18 9.512-1.033 1.092-2.245 2.07-3.266 3.163-2.508 2.691-4.78 5.579-7.288 8.12-1.129 1.142-2.35 2.167-3.391 3.292-2.509 2.717-4.842 5.458-7.092 8.05-2.637 3.03-4.496 5.6-6.562 8.033-.942 1.105-1.971 1.984-2.892 3.021-1.767 1.992-3.32 4.142-5.054 5.967-1.575 1.646-4.554 3.833-6.388 5.887a5.013 5.013 0 0 0-2.43-.496 4.58 4.58 0 0 0-1.616.392 4.33 4.33 0 0 0-1.325.909 3.91 3.91 0 0 0-.541.691c-.15.184-.284.375-.409.575a5.196 5.196 0 0 0-.708 3.267 4.68 4.68 0 0 0 .475 1.608c.25.504.592.963.992 1.338.408.375.875.67 1.362.858.371.15.854.25 1.371.275.088 0 .18 0 .27.004.268.013.543.017.822-.004a4.367 4.367 0 0 0 2.041-.53 4.21 4.21 0 0 0 1.25-.904c.117-.108.225-.25.325-.403a.95.95 0 0 0 .305-.259c.195-.279.362-.604.487-.95.12-.35.204-.725.233-1.091a5.092 5.092 0 0 0-.025-1.075c0-.013-.008-.025-.008-.038a5.268 5.268 0 0 0-.162-.95 4.635 4.635 0 0 0-.338-.875c1.663-2.208 3.12-4.37 5.188-5.437.829-1.884 2.591-3.284 4.133-5.088 1.387-1.617 2.333-3.5 3.725-5.208 1.854-2.267 3.43-4.992 5.383-7.342.896-1.07 2.225-1.787 3.142-2.837 2.396-2.742 5.362-5.267 8-8.2.95-1.05 1.762-2.363 2.733-3.413 1.38-1.492 2.913-2.825 4.367-4.37 2.92-3.076 5.67-6.397 8.27-9.184 1.01-1.088 2.184-1.942 3.15-3.033.634-.713 1.16-1.646 1.755-2.342a330.89 330.89 0 0 1 6.72-7.642c2.613-2.883 5.438-5.491 8.122-8.333 2.691-2.846 4.975-6.133 7.629-8.78.787-.778 1.896-1.353 2.804-2.366.846-.933 1.37-2.062 2.22-3.137 3.805-4.809 8.055-7.963 12.155-12.038 1.983-1.975 3.896-4.542 6-6.575.758-.733 1.487-1.27 2.175-1.954 2.687-2.717 3.487-4.375 5.092-6.425 1.05-1.342 2.583-3.192 4.17-5.042-.062.204-.125.384-.166.525-.313.884-.796 1.813-.975 2.342-.863 2.542-1.538 6.408-3.025 9.762-.442 1.013-1.042 1.905-1.517 2.917-.817 1.75-1.479 3.713-2.383 5.5-.904 1.775-1.975 3.375-2.759 5.154-.345.788-.533 1.625-.887 2.388-.438.946-1.104 1.758-1.538 2.708-.829 1.842-1.654 3.788-2.454 5.67-2.316 5.434-4.32 11.66-6.55 16.76-1.454 3.324-3.646 7.05-4.683 10.058-1.58 4.545-3.68 9.541-5.804 14.708-1.592 3.887-2.813 7.98-4.454 11.725-.609 1.383-1.417 2.712-2.005 4.087-1.445 3.38-2.6 6.871-4.095 10.113-.671 1.454-1.475 2.83-2.067 4.25-1.442 3.404-2.7 6.775-3.938 9.98-1.445 3.74-2.329 6.79-3.445 9.778-.517 1.363-1.18 2.538-1.692 3.825-.992 2.475-1.725 5.03-2.738 7.33-.912 2.091-2.983 5.154-4 7.708a4.867 4.867 0 0 0-2.454.363 4.578 4.578 0 0 0-1.391.912 4.243 4.243 0 0 0-.93 1.312 3.83 3.83 0 0 0-.279.834c-.07.216-.137.441-.187.67a5.002 5.002 0 0 0-.046 1.725c.07.546.237 1.084.487 1.588.25.508.588.967.992 1.354.404.392.883.708 1.396.921a4.24 4.24 0 0 0 1.567.342c.4.016.887-.046 1.379-.2.083-.03.17-.063.262-.088.25-.083.513-.17.763-.283a4.274 4.274 0 0 0 1.741-1.192c.096-.1.192-.204.28-.317.25-.304.454-.633.6-.962" fill="#231f20"/>
</svg>
